<?xml version="1.0" standalone="no"?>
<!DOCTYPE svg PUBLIC "-//W3C//DTD SVG 20010904//EN"
 "http://www.w3.org/TR/2001/REC-SVG-20010904/DTD/svg10.dtd">
<svg version="1.0" xmlns="http://www.w3.org/2000/svg"
 width="200.000000pt" height="200.000000pt" viewBox="0 0 200.000000 200.000000"
 preserveAspectRatio="xMidYMid meet">

<g transform="translate(0.000000,200.000000) scale(0.100000,-0.100000)"
fill="#000000" stroke="none">
<path d="M783 1581 c-45 -9 -85 -19 -89 -24 -4 -4 2 -17 14 -30 31 -33 36 -52
92 -333 28 -143 65 -324 82 -403 22 -106 28 -152 21 -170 -7 -21 -2 -43 24
-104 51 -121 49 -118 80 -102 37 19 74 114 72 180 -2 45 145 803 170 877 5 14
7 29 4 32 -4 3 1 14 11 25 22 24 9 34 -69 50 -33 7 -70 15 -82 18 -21 5 -23 2
-23 -35 0 -48 -66 -324 -87 -366 l-15 -30 -13 30 c-16 39 -84 309 -88 352 -2
18 -8 36 -13 41 -5 4 -46 0 -91 -8z"/>
<path d="M1379 1574 c-7 -14 -24 -30 -37 -35 -20 -8 -23 -15 -20 -45 1 -20 -3
-38 -10 -43 -17 -10 -52 -160 -40 -167 13 -9 1 -84 -17 -104 -18 -20 -36 -101
-26 -115 8 -10 -72 -405 -89 -440 -6 -11 -16 -42 -24 -68 -14 -47 -14 -50 10
-85 19 -27 33 -37 55 -38 49 -3 68 22 75 96 3 36 26 157 50 270 51 230 56 240
129 240 55 0 75 -8 75 -29 0 -14 10 -17 53 -18 41 -1 63 5 106 29 77 44 155
127 198 211 35 67 38 78 37 152 -2 81 -19 140 -48 164 -20 17 -36 6 -36 -24 0
-15 -11 -32 -32 -47 -30 -21 -45 -23 -181 -26 -115 -3 -148 -1 -151 10 -2 7
-12 41 -22 76 -19 67 -33 76 -55 36z m272 -332 c-25 -47 -88 -66 -186 -57
l-74 7 10 26 c6 15 16 30 22 34 7 4 63 8 125 8 106 0 112 -1 103 -18z"/>
<path d="M541 1543 c-7 -27 -13 -61 -12 -76 l0 -28 -165 3 -166 3 -29 33 c-16
18 -27 37 -24 42 9 15 -15 22 -31 9 -41 -34 -56 -139 -31 -209 48 -133 143
-243 265 -307 43 -24 85 -43 92 -43 7 0 25 11 42 25 24 20 40 25 88 25 47 0
60 -3 64 -17 17 -58 89 -395 91 -428 1 -22 2 -54 3 -72 2 -24 11 -38 43 -61
42 -31 64 -32 87 -4 18 23 15 63 -12 139 -33 93 -87 350 -95 454 -5 58 -14 99
-29 128 -16 31 -21 52 -16 79 6 38 -18 157 -39 197 -6 11 -12 30 -13 43 -2 18
-83 112 -97 112 -2 0 -9 -21 -16 -47z m48 -334 c6 -18 11 -34 11 -35 0 -2 -47
-4 -104 -4 -90 0 -107 3 -136 23 -63 42 -53 47 88 47 l130 0 11 -31z"/>
</g>
</svg>
